<svg viewBox="0 0 640 220" xmlns="http://www.w3.org/2000/svg" role="img" aria-label="A logarithmic golden spiral, drawn as a single line, opening from a tight center outward across three turns">
<g transform="translate(150,110) scale(4.6)">
<path d="M -0.0,1.31 L -0.28,1.33 L -0.57,1.29 L -0.86,1.18 L -1.13,1.02 L -1.36,0.79 L -1.55,0.5 L -1.69,0.18 L -1.75,-0.18 L -1.74,-0.56 L -1.64,-0.95 L -1.46,-1.31 L -1.2,-1.65 L -0.86,-1.93 L -0.46,-2.15 L 0.0,-2.28 L 0.49,-2.31 L 1.0,-2.24 L 1.49,-2.06 L 1.96,-1.76 L 2.37,-1.37 L 2.7,-0.88 L 2.93,-0.31 L 3.04,0.32 L 3.02,0.98 L 2.85,1.64 L 2.54,2.28 L 2.08,2.86 L 1.49,3.36 L 0.79,3.73 L 0.0,3.95 L -0.85,4.01 L -1.73,3.89 L -2.6,3.57 L -3.41,3.07 L -4.12,2.38 L -4.69,1.52 L -5.09,0.53 L -5.28,-0.56 L -5.24,-1.7 L -4.95,-2.86 L -4.41,-3.97 L -3.62,-4.98 L -2.6,-5.83 L -1.38,-6.48 L -0.0,-6.87 L 1.48,-6.97 L 3.01,-6.76 L 4.51,-6.21 L 5.92,-5.33 L 7.16,-4.13 L 8.15,-2.65 L 8.85,-0.93 L 9.18,0.96 L 9.11,2.96 L 8.6,4.97 L 7.66,6.9 L 6.29,8.65 L 4.51,10.14 L 2.39,11.26 L 0.0,11.94 L -2.58,12.12 L -5.23,11.74 L -7.84,10.79 L -10.28,9.26 L -12.43,7.18 L -14.17,4.6 L -15.37,1.62 L -15.95,-1.68 L -15.82,-5.14 L -14.95,-8.63 L -13.31,-11.98 L -10.92,-15.03 L -7.84,-17.61 L -4.16,-19.57 L -0.0,-20.75 L 4.48,-21.06 L 9.09,-20.41 L 13.62,-18.75 L 17.87,-16.09 L 21.61,-12.48 L 24.62,-8.0 L 26.71,-2.81 L 27.71,2.91 L 27.5,8.93 L 25.98,15.0 L 23.13,20.83 L 18.98,26.12 L 13.63,30.61 L 7.23,34.0 L 0.0,36.07" fill="none" stroke="currentColor" stroke-width="0.55" stroke-linecap="round" stroke-linejoin="round"/>
</g>
</svg>
